<?xml version="1.0" encoding="iso-8859-1"?>
<!-- Generator: Adobe Illustrator 19.0.0, SVG Export Plug-In . SVG Version: 6.00 Build 0)  -->
<svg version="1.1" id="Layer_1" xmlns="http://www.w3.org/2000/svg" xmlns:xlink="http://www.w3.org/1999/xlink" x="0px" y="0px"
	 viewBox="0 0 508 508" style="enable-background:new 0 0 508 508;" xml:space="preserve">
<rect x="28" y="454" style="fill:#616161;" width="148" height="28"/>
<path style="fill:#B2DFDB;" d="M336,450h144V130H323.6v12c0,6.8-5.2,12-12,12h-24.4c-6.4,0-11.6-4.8-11.6-11.6V130h-40.4v12
	c0,6.8-5.2,12-12,12h-24.4c-6.4,0-11.6-4.8-11.6-11.6V130h-160v320h148H336z"/>
<rect x="332" y="450" style="fill:#616161;" width="148" height="32"/>
<g>
	<rect x="90" y="176" style="fill:#EEEEEE;" width="56" height="56"/>
	<rect x="178" y="176" style="fill:#EEEEEE;" width="60" height="60"/>
	<rect x="270" y="174" style="fill:#EEEEEE;" width="62" height="62"/>
	<rect x="366" y="176" style="fill:#EEEEEE;" width="56" height="56"/>
	<rect x="90" y="268" style="fill:#EEEEEE;" width="56" height="56"/>
	<rect x="178" y="268" style="fill:#EEEEEE;" width="60" height="60"/>
	<rect x="274" y="268" style="fill:#EEEEEE;" width="56" height="56"/>
	<rect x="366" y="268" style="fill:#EEEEEE;" width="56" height="56"/>
	<rect x="90" y="360" style="fill:#EEEEEE;" width="56" height="56"/>
	<rect x="366" y="360" style="fill:#EEEEEE;" width="56" height="56"/>
</g>
<path style="fill:#E57373;" d="M319.6,122.4L319.2,28c0-2-1.6-2-4-2h-28c-2.4,0-7.6-1.6-7.6,0.4v32c0,2.4,2.4,7.6,0,7.6h-44
	c0,0-4-3.6-4-5.6l-0.4-31.2c0-2-2-3.2-4-3.2h-28c-2.4,0-7.6-1.6-7.6,0.4v96V146c0,2,5.2,3.6,7.6,3.6h28.4c2,0,4.4-5.6,4.4-7.6v-36
	c0-1.2,2-0.4,2.8-1.2c0.8-0.8-0.4,0.4,0.8,0.4H280c2.4,0,0,0,0,0v16.4v23.6c0,2,5.2,3.6,7.6,3.6H316c2,0,4-3.6,4-6L319.6,122.4z"/>
<polygon style="fill:#78909C;" points="328,362 260,362 252,362 180,362 180,450.4 180,482 252,482 260,482 328,482 328,450.4 "/>
<path d="M276,132h-40c-2.4,0-4-1.6-4-4s1.6-4,4-4h40c2.4,0,4,1.6,4,4S278.4,132,276,132z"/>
<path d="M482,488H26c-2.4,0-4-1.6-4-4V128c0-2.4,1.6-4,4-4h162c2.4,0,4,1.6,4,4s-1.6,4-4,4H30v348h448V132H324c-2.4,0-4-1.6-4-4
	s1.6-4,4-4h158c2.4,0,4,1.6,4,4v356C486,486.4,484.4,488,482,488z"/>
<path d="M146,240H86c-2.4,0-4-1.6-4-4v-60c0-2.4,1.6-4,4-4h60c2.4,0,4,1.6,4,4v60C150,238.4,148.4,240,146,240z M90,232h52v-52H90
	V232z"/>
<path d="M238,240h-60c-2.4,0-4-1.6-4-4v-60c0-2.4,1.6-4,4-4h60c2.4,0,4,1.6,4,4v60C242,238.4,240.4,240,238,240z M182,232h52v-52
	h-52V232z"/>
<path d="M330,240h-60c-2.4,0-4-1.6-4-4v-60c0-2.4,1.6-4,4-4h60c2.4,0,4,1.6,4,4v60C334,238.4,332.4,240,330,240z M274,232h52v-52
	h-52V232z"/>
<path d="M422,240h-60c-2.4,0-4-1.6-4-4v-60c0-2.4,1.6-4,4-4h60c2.4,0,4,1.6,4,4v60C426,238.4,424.4,240,422,240z M366,232h52v-52
	h-52V232z"/>
<path d="M146,332H86c-2.4,0-4-1.6-4-4v-60c0-2.4,1.6-4,4-4h60c2.4,0,4,1.6,4,4v60C150,330.4,148.4,332,146,332z M90,324h52v-52H90
	V324z"/>
<path d="M238,332h-60c-2.4,0-4-1.6-4-4v-60c0-2.4,1.6-4,4-4h60c2.4,0,4,1.6,4,4v60C242,330.4,240.4,332,238,332z M182,324h52v-52
	h-52V324z"/>
<path d="M330,332h-60c-2.4,0-4-1.6-4-4v-60c0-2.4,1.6-4,4-4h60c2.4,0,4,1.6,4,4v60C334,330.4,332.4,332,330,332z M274,324h52v-52
	h-52V324z"/>
<path d="M422,332h-60c-2.4,0-4-1.6-4-4v-60c0-2.4,1.6-4,4-4h60c2.4,0,4,1.6,4,4v60C426,330.4,424.4,332,422,332z M366,324h52v-52
	h-52V324z"/>
<path d="M146,424H86c-2.4,0-4-1.6-4-4v-60c0-2.4,1.6-4,4-4h60c2.4,0,4,1.6,4,4v60C150,422.4,148.4,424,146,424z M90,416h52v-52H90
	V416z"/>
<path d="M422,424h-60c-2.4,0-4-1.6-4-4v-60c0-2.4,1.6-4,4-4h60c2.4,0,4,1.6,4,4v60C426,422.4,424.4,424,422,424z M366,416h52v-52
	h-52V416z"/>
<path d="M176,456H28c-2.4,0-4-1.6-4-4s1.6-4,4-4h148c2.4,0,4,1.6,4,4S178.4,456,176,456z"/>
<path d="M480,456h-12c-2.4,0-4-1.6-4-4s1.6-4,4-4h12c2.4,0,4,1.6,4,4S482.4,456,480,456z"/>
<path d="M436,456H332c-2.4,0-4-1.6-4-4s1.6-4,4-4h104c2.4,0,4,1.6,4,4S438.4,456,436,456z"/>
<path d="M254,378c-2.4,0-4-1.6-4-4v-12c0-2.4,1.6-4,4-4s4,1.6,4,4v12C258,376.4,256.4,378,254,378z"/>
<path d="M254,482c-2.4,0-4-1.6-4-4v-72c0-2.4,1.6-4,4-4s4,1.6,4,4v72C258,480.4,256.4,482,254,482z"/>
<path d="M504,488H4c-2.4,0-4-1.6-4-4s1.6-4,4-4h500c2.4,0,4,1.6,4,4S506.4,488,504,488z"/>
<path d="M315.6,156H284c-3.6,0-10,0-10-8.4V112h-36.4v34.8c0,6.8-2.8,9.2-9.2,9.2h-32.8c-6.4,0-9.6-3.6-9.6-10.4V30
	c0-2.8,1.2-10,11.2-10h29.6c8,0,9.2,4.8,9.2,10v32h38V30c0-2.8,1.2-10,11.2-10h31.2c8,0,9.2,4.8,9.2,9.6l0.4,115.6
	C325.6,154.8,318.8,156,315.6,156z M282,148c0.8,0,1.6,0,2,0h31.6c1.6,0,2,0,2-2.8l-0.4-115.6l0,0c0-0.8,0-1.2,0-1.6
	c-0.4,0-0.8,0-1.2,0h-31.2c-3.2,0-3.2,0.4-3.2,2v36c0,2.4-1.6,4-4,4h-46c-0.8,0-2-0.4-2.8-1.2s-1.2-1.6-1.2-2.8V30c0-0.8,0-1.6,0-2
	c-0.4,0-0.4,0-1.2,0h-29.6c-3.2,0-3.2,0.4-3.2,2v115.6c0,1.6,0,2,0.4,2.4c0,0,0.4,0,1.6,0h32.8c0.4,0,0.8,0,1.2,0c0-0.4,0-0.8,0-1.2
	V108c0-1.2,0.4-2,1.2-2.8s1.6-1.2,2.8-1.2H278c2.4,0,4,1.6,4,4v39.6C282,147.6,282,148,282,148z"/>
<path d="M330,488H178c-2.4,0-4-1.6-4-4V360c0-2.4,1.6-4,4-4h152c2.4,0,4,1.6,4,4v124C334,486.4,332.4,488,330,488z M182,480h144V364
	H182V480z"/>
<g>
</g>
<g>
</g>
<g>
</g>
<g>
</g>
<g>
</g>
<g>
</g>
<g>
</g>
<g>
</g>
<g>
</g>
<g>
</g>
<g>
</g>
<g>
</g>
<g>
</g>
<g>
</g>
<g>
</g>
</svg>
