<?xml version="1.0" encoding="iso-8859-1"?>
<!-- Generator: Adobe Illustrator 19.0.0, SVG Export Plug-In . SVG Version: 6.00 Build 0)  -->
<svg version="1.1" id="Layer_1" xmlns="http://www.w3.org/2000/svg" xmlns:xlink="http://www.w3.org/1999/xlink" x="0px" y="0px"
	 viewBox="0 0 512 512" style="enable-background:new 0 0 512 512;" xml:space="preserve">
<g>
	<g>
		<path d="M394.168,201.253h-83.422v-83.422c0-16.517-13.439-29.956-29.957-29.956H231.21c-16.518,0-29.957,13.439-29.957,29.956
			v83.424h-83.422c-16.517,0-29.956,13.439-29.956,29.957v49.578c0,16.518,13.439,29.957,29.956,29.957h83.423v83.422
			c0,16.517,13.439,29.956,29.957,29.956h49.578c16.519,0,29.957-13.439,29.956-29.958v-83.422h83.422
			c16.517,0,29.956-13.439,29.956-29.957V231.21C424.123,214.691,410.685,201.253,394.168,201.253z M406.402,280.789
			c0,6.747-5.489,12.236-12.235,12.236h-92.283c-4.893,0-8.861,3.966-8.861,8.861v92.283c0,6.746-5.489,12.235-12.236,12.235H231.21
			c-6.747,0-12.236-5.488-12.236-12.235v-92.283c0-4.895-3.967-8.861-8.861-8.861h-92.283c-6.746,0-12.235-5.489-12.235-12.236
			v-49.578c0-6.747,5.489-12.236,12.235-12.236v-0.001h92.283c4.893,0,8.861-3.966,8.861-8.861v-92.283
			c0-6.746,5.489-12.235,12.236-12.235h49.578c6.747,0,12.236,5.488,12.236,12.235v92.284c0,4.895,3.967,8.861,8.861,8.861h92.283
			c6.746,0,12.235,5.489,12.235,12.236V280.789z"/>
	</g>
</g>
<g>
	<g>
		<path d="M360.591,494.278H46.95c-16.117,0-29.228-13.111-29.228-29.228v-418.1c0-16.116,13.111-29.228,29.228-29.228h44.273
			c4.893,0,8.861-3.966,8.861-8.861S96.117,0,91.223,0H46.95C21.063,0,0.002,21.061,0.001,46.949v418.101
			C0.001,490.939,21.062,512,46.95,512h313.641c4.893,0,8.861-3.967,8.861-8.862C369.451,498.244,365.484,494.278,360.591,494.278z"
			/>
	</g>
</g>
<g>
	<g>
		<path d="M465.05,0H126.666c-4.893,0-8.861,3.966-8.861,8.861s3.967,8.861,8.861,8.861H465.05
			c16.117,0,29.228,13.111,29.228,29.228v418.101c0,16.116-13.111,29.228-29.228,29.228h-69.017c-4.893,0-8.861,3.966-8.861,8.861
			S391.14,512,396.033,512h69.017c25.888,0,46.949-21.061,46.949-46.951v-418.1C511.999,21.061,490.938,0,465.05,0z"/>
	</g>
</g>
<g>
</g>
<g>
</g>
<g>
</g>
<g>
</g>
<g>
</g>
<g>
</g>
<g>
</g>
<g>
</g>
<g>
</g>
<g>
</g>
<g>
</g>
<g>
</g>
<g>
</g>
<g>
</g>
<g>
</g>
</svg>
